#!OML:ASF F:\VICON\USERDATA\INSTALL\rory3\rory3.ASF
:FULLY-SPECIFIED
:DEGREES
1798
root 5.60084 17.4738 1.28704 19.1696 1.59364 0.715436
lowerback -9.14795 -1.49659 9.09121
upperback -13.2731 -2.26052 0.744315
thorax -9.54997 -1.97168 -4.25984
lowerneck -4.26653 19.5303 11.1943
upperneck 10.6334 25.4546 -0.10026
head 5.2714 12.9183 0.145649
rclavicle 2.38542e-015 -3.97569e-015
rhumerus -9.21261 -28.7191 27.8796
rradius 113.769
rwrist -61.4563
rhand -4.15306 -41.3519
rfingers 7.12502
rthumb 21.607 -70.1664
lclavicle 2.38542e-015 -3.97569e-015
lhumerus 24.8308 27.2473 -12.9227
lradius 32.8105
lwrist 56.5247
lhand -20.8206 -13.2913
lfingers 7.12502
lthumb 5.54759 16.6161
rfemur -13.6076 10.6345 -9.25392
rtibia 13.1987
rfoot -10.8594 -23.6795
rtoes 36.6023
lfemur -18.3911 3.09628 -30.7786
ltibia 15.9519
lfoot -15.5096 2.31455
ltoes 9.10265
1799
root 5.59421 17.4736 1.26673 19.5142 2.04883 0.858908
lowerback -9.31248 -1.64725 8.94831
upperback -13.3766 -2.46683 0.772166
thorax -9.59483 -2.06407 -4.15207
lowerneck -4.3776 19.5452 11.1519
upperneck 10.7138 25.4658 -0.0932345
head 5.30867 12.9219 0.169219
rclavicle 4.53229e-014 -1.82882e-014
rhumerus -9.23979 -28.7057 27.8583
rradius 113.849
rwrist -61.4107
rhand -4.33803 -41.4737
rfingers 7.12502
rthumb 21.4293 -70.3085
lclavicle 4.53229e-014 -1.82882e-014
lhumerus 24.5551 26.872 -13.36
lradius 32.946
lwrist 57.0379
lhand -20.4028 -12.7422
lfingers 7.12502
lthumb 5.95099 17.1542
rfemur -13.7586 10.2713 -9.30067
rtibia 13.2321
rfoot -12.2547 -23.2293
rtoes 38.6465
lfemur -18.8447 2.89413 -30.8511
ltibia 15.9784
lfoot -15.4148 2.01343
ltoes 8.71432
1800
root 5.60353 17.4747 1.26285 19.5345 2.47018 0.671368
lowerback -9.33004 -1.70304 9.36384
upperback -13.3688 -2.55251 0.811511
thorax -9.62636 -2.14441 -4.33873
lowerneck -4.37066 19.5642 11.0821
upperneck 10.6365 25.4913 -0.0558243
head 5.27048 12.9335 0.181439
rclavicle 1.19271e-014 -3.4191e-014
rhumerus -9.2549 -28.6928 27.835
rradius 113.907
rwrist -61.3577
rhand -4.25565 -41.5693
rfingers 7.12502
rthumb 21.5084 -70.3951
lclavicle 1.19271e-014 -3.4191e-014
lhumerus 24.4395 26.6692 -13.5859
lradius 32.9841
lwrist 57.1423
lhand -20.2458 -12.3548
lfingers 7.12502
lthumb 6.10255 17.5373
rfemur -13.528 9.93726 -8.94282
rtibia 13.2069
rfoot -12.8703 -22.8498
rtoes 39.7248
lfemur -18.8958 2.79499 -30.5993
ltibia 16.0654
lfoot -15.4538 1.7997
ltoes 8.76696
1801
root 5.59227 17.475 1.27036 19.6471 2.2143 0.798366
lowerback -9.48169 -1.65031 9.01154
upperback -13.4211 -2.48484 0.812209
thorax -9.55653 -2.07654 -4.14873
lowerneck -4.17609 19.5586 11.0634
upperneck 10.4917 25.5057 -0.0540741
head 5.19227 12.9417 0.154814
rclavicle -8.54774e-015 1.59028e-015
rhumerus -9.19623 -28.6855 27.7464
rradius 113.92
rwrist -61.3646
rhand -3.89029 -41.5446
rfingers 7.12502
rthumb 21.8593 -70.3299
lclavicle -8.54774e-015 1.59028e-015
lhumerus 24.5684 26.7356 -13.4347
lradius 32.9113
lwrist 56.8745
lhand -20.299 -12.138
lfingers 7.12502
lthumb 6.05117 17.7556
rfemur -13.7493 10.2017 -9.19189
rtibia 13.1587
rfoot -12.7467 -23.0729
rtoes 39.2867
lfemur -19.092 2.82959 -30.7472
ltibia 16.1731
lfoot -15.4622 1.93555
ltoes 8.87732
1802
root 5.60111 17.4766 1.26688 19.5884 2.46395 0.65641
lowerback -9.3971 -1.68898 9.34963
upperback -13.4121 -2.53701 0.829311
thorax -9.63397 -2.13607 -4.31281
lowerneck -4.20755 19.5336 11.0679
upperneck 10.5204 25.4685 -0.0570095
head 5.20555 12.9235 0.155075
rclavicle -2.20651e-014 2.22639e-014
rhumerus -9.12917 -28.7326 27.6389
rradius 113.931
rwrist -61.4295
rhand -4.02747 -41.4978
rfingers 7.12502
rthumb 21.7276 -70.2984
lclavicle -2.20651e-014 2.22639e-014
lhumerus 24.7255 26.999 -13.2037
lradius 32.8263
lwrist 56.6559
lhand -20.2616 -11.9595
lfingers 7.12502
lthumb 6.08728 17.933
rfemur -13.4714 9.98331 -8.9388
rtibia 12.995
rfoot -11.775 -23.4807
rtoes 37.8093
lfemur -19.0654 2.808 -30.571
ltibia 16.279
lfoot -15.524 1.77119
ltoes 8.83262
1803
root 5.60455 17.4761 1.26842 19.5868 2.56684 0.608439
lowerback -9.47266 -1.69405 9.49975
upperback -13.3476 -2.56036 0.82364
thorax -9.53326 -2.15627 -4.40736
lowerneck -4.46752 19.5394 10.9753
upperneck 10.6657 25.4398 0.0649585
head 5.26336 12.9107 0.228186
rclavicle 3.65764e-014 3.18055e-015
rhumerus -9.11329 -28.8044 27.5642
rradius 113.914
rwrist -61.4255
rhand -4.44186 -41.4572
rfingers 7.12502
rthumb 21.3296 -70.3033
lclavicle 3.65764e-014 3.18055e-015
lhumerus 24.724 27.145 -13.2107
lradius 32.834
lwrist 56.6903
lhand -20.2036 -11.6432
lfingers 7.12502
lthumb 6.14325 18.2477
rfemur -13.3703 9.92128 -8.85183
rtibia 12.9452
rfoot -11.3994 -23.5925
rtoes 37.1721
lfemur -19.0481 2.77672 -30.5053
ltibia 16.2953
lfoot -15.5675 1.71103
ltoes 8.7438
1804
root 5.60603 17.4751 1.27296 19.5816 2.6597 0.621542
lowerback -9.56411 -1.70094 9.54507
upperback -13.3159 -2.58366 0.802541
thorax -9.45306 -2.16924 -4.46037
lowerneck -4.46148 19.5624 10.9283
upperneck 10.6349 25.465 0.140859
head 5.23787 12.9255 0.251503
rclavicle 4.77083e-014 -4.13472e-014
rhumerus -9.10328 -28.7835 27.5302
rradius 113.905
rwrist -61.3254
rhand -4.48539 -41.3449
rfingers 7.12502
rthumb 21.2878 -70.1957
lclavicle 4.77083e-014 -4.13472e-014
lhumerus 24.6294 27.0235 -13.3785
lradius 32.9192
lwrist 56.8789
lhand -20.3404 -11.4853
lfingers 7.12502
lthumb 6.01121 18.4094
rfemur -13.2312 9.92062 -8.83405
rtibia 12.8323
rfoot -11.3851 -23.6579
rtoes 37.107
lfemur -19.0508 2.76326 -30.5032
ltibia 16.3532
lfoot -15.5864 1.65083
ltoes 8.83702
1805
root 5.60454 17.4742 1.27491 19.5719 2.67082 0.699325
lowerback -9.54202 -1.70654 9.44023
upperback -13.3145 -2.58577 0.787669
thorax -9.45517 -2.16114 -4.4179
lowerneck -4.49504 19.5678 10.8969
upperneck 10.6321 25.4685 0.159668
head 5.23594 12.9268 0.262646
rclavicle -1.68967e-014 1.35174e-014
rhumerus -9.1385 -28.7302 27.6148
rradius 113.939
rwrist -61.2495
rhand -4.32863 -41.2811
rfingers 7.12502
rthumb 21.4384 -70.1149
lclavicle -1.68967e-014 1.35174e-014
lhumerus 24.8294 27.3311 -13.0827
lradius 32.8052
lwrist 56.4852
lhand -20.3711 -11.6905
lfingers 7.12502
lthumb 5.98156 18.2051
rfemur -13.1964 9.92577 -8.904
rtibia 12.8214
rfoot -11.5643 -23.5881
rtoes 37.4138
lfemur -19.0298 2.78436 -30.5808
ltibia 16.3501
lfoot -15.5405 1.5761
ltoes 9.17894
1806
root 5.60092 17.4729 1.28046 19.5167 2.5068 0.769661
lowerback -9.47475 -1.68103 9.27376
upperback -13.2828 -2.54036 0.79471
thorax -9.4324 -2.1202 -4.31723
lowerneck -4.71437 19.5783 10.7984
upperneck 10.7817 25.4597 0.230059
head 5.29587 12.9217 0.321196
rclavicle 5.76476e-015 -2.38542e-015
rhumerus -9.1659 -28.6969 27.6801
rradius 113.985
rwrist -61.1966
rhand -4.5181 -41.2949
rfingers 7.12502
rthumb 21.2564 -70.1493
lclavicle 5.76476e-015 -2.38542e-015
lhumerus 25.0203 27.7125 -12.7474
lradius 32.6441
lwrist 55.9751
lhand -20.8353 -12.2556
lfingers 7.12502
lthumb 5.53336 17.6521
rfemur -13.2012 10.016 -9.00887
rtibia 12.8352
rfoot -11.72 -23.4693
rtoes 37.7457
lfemur -18.9393 2.91741 -30.6903
ltibia 16.3215
lfoot -15.5503 1.58162
ltoes 9.24408
1807
root 5.59865 17.4716 1.29171 19.3688 2.30632 0.749883
lowerback -9.47136 -1.63219 9.23911
upperback -13.179 -2.47978 0.790733
thorax -9.29941 -2.07838 -4.30672
lowerneck -4.71252 19.5944 10.797
upperneck 10.6997 25.4827 0.201675
head 5.2739 12.9302 0.310652
rclavicle 5.50634e-014 -1.82882e-014
rhumerus -9.20923 -28.8039 27.6779
rradius 114.014
rwrist -61.2413
rhand -4.42694 -41.2213
rfingers 7.12502
rthumb 21.3439 -70.0659
lclavicle 5.50634e-014 -1.82882e-014
lhumerus 24.719 27.3437 -13.2053
lradius 32.7904
lwrist 56.4529
lhand -22.1807 -13.1399
lfingers 7.12502
lthumb 4.23424 16.7978
rfemur -13.1589 10.2121 -9.01948
rtibia 12.9025
rfoot -11.6584 -23.4424
rtoes 37.7421
lfemur -18.7449 3.17316 -30.7223
ltibia 16.2878
lfoot -15.6204 1.6096
ltoes 8.99448
1808
root 5.60059 17.4709 1.29407 19.3153 2.42237 0.720811
lowerback -9.51207 -1.66254 9.34673
upperback -13.1115 -2.53197 0.785835
thorax -9.21583 -2.10911 -4.37559
lowerneck -4.66494 19.6241 10.8315
upperneck 10.5621 25.5274 0.151812
head 5.23527 12.949 0.28525
rclavicle 2.62396e-014 -5.56597e-015
rhumerus -9.25197 -28.9648 27.6861
rradius 114.048
rwrist -61.3496
rhand -4.32431 -41.199
rfingers 7.12502
rthumb 21.4425 -70.0323
lclavicle 2.62396e-014 -5.56597e-015
lhumerus 24.2802 26.7761 -13.882
lradius 33.0394
lwrist 57.2603
lhand -23.1784 -13.9343
lfingers 7.12502
lthumb 3.27082 16.0204
rfemur -13.0866 10.1623 -8.93346
rtibia 13.0053
rfoot -11.6398 -23.3957
rtoes 37.7496
lfemur -18.6638 3.22257 -30.6828
ltibia 16.2678
lfoot -15.6487 1.49539
ltoes 8.77094
